<mxfile host="app.diagrams.net" agent="Mozilla/5.0 (Windows NT 10.0; Win64; x64) AppleWebKit/537.36 (KHTML, like Gecko) Chrome/137.0.0.0 Safari/537.36" version="27.1.6">
  <diagram id="0Avxz_FGuCc4ckQZlTDW" name="Page-1">
    <mxGraphModel dx="1251" dy="1760" grid="1" gridSize="10" guides="1" tooltips="1" connect="1" arrows="1" fold="1" page="1" pageScale="1" pageWidth="850" pageHeight="1100" math="0" shadow="0">
      <root>
        <mxCell id="0" />
        <mxCell id="1" parent="0" />
        <mxCell id="F5Gc1yzAL4nugvWNy83B-1" value="" style="rounded=0;whiteSpace=wrap;html=1;" parent="1" vertex="1">
          <mxGeometry x="813" y="-400" width="690" height="290" as="geometry" />
        </mxCell>
        <mxCell id="F5Gc1yzAL4nugvWNy83B-2" value="" style="triangle;whiteSpace=wrap;html=1;rotation=-90;fillColor=#dae8fc;gradientColor=#7ea6e0;strokeColor=#6c8ebf;" parent="1" vertex="1">
          <mxGeometry x="783" y="-295" width="60" height="80" as="geometry" />
        </mxCell>
        <mxCell id="F5Gc1yzAL4nugvWNy83B-3" value="&lt;b&gt;Entrance&lt;/b&gt;" style="text;html=1;align=center;verticalAlign=middle;resizable=0;points=[];autosize=1;strokeColor=none;fillColor=none;" parent="1" vertex="1">
          <mxGeometry x="778" y="-250" width="70" height="30" as="geometry" />
        </mxCell>
        <mxCell id="F5Gc1yzAL4nugvWNy83B-43" style="edgeStyle=orthogonalEdgeStyle;rounded=0;orthogonalLoop=1;jettySize=auto;html=1;entryX=0;entryY=0.5;entryDx=0;entryDy=0;" parent="1" source="F5Gc1yzAL4nugvWNy83B-4" target="F5Gc1yzAL4nugvWNy83B-6" edge="1">
          <mxGeometry relative="1" as="geometry" />
        </mxCell>
        <mxCell id="F5Gc1yzAL4nugvWNy83B-4" value="&lt;b&gt;Public&lt;/b&gt;" style="rounded=1;whiteSpace=wrap;html=1;fillColor=#dae8fc;gradientColor=#7ea6e0;strokeColor=#6c8ebf;" parent="1" vertex="1">
          <mxGeometry x="913" y="-355" width="120" height="60" as="geometry" />
        </mxCell>
        <mxCell id="F5Gc1yzAL4nugvWNy83B-44" style="edgeStyle=orthogonalEdgeStyle;rounded=0;orthogonalLoop=1;jettySize=auto;html=1;" parent="1" source="F5Gc1yzAL4nugvWNy83B-5" target="F5Gc1yzAL4nugvWNy83B-7" edge="1">
          <mxGeometry relative="1" as="geometry" />
        </mxCell>
        <mxCell id="F5Gc1yzAL4nugvWNy83B-5" value="&lt;b&gt;Public&lt;/b&gt;" style="rounded=1;whiteSpace=wrap;html=1;fillColor=#dae8fc;gradientColor=#7ea6e0;strokeColor=#6c8ebf;" parent="1" vertex="1">
          <mxGeometry x="913" y="-200" width="120" height="60" as="geometry" />
        </mxCell>
        <mxCell id="F5Gc1yzAL4nugvWNy83B-45" style="edgeStyle=orthogonalEdgeStyle;rounded=0;orthogonalLoop=1;jettySize=auto;html=1;entryX=0;entryY=0.5;entryDx=0;entryDy=0;" parent="1" source="F5Gc1yzAL4nugvWNy83B-6" target="F5Gc1yzAL4nugvWNy83B-8" edge="1">
          <mxGeometry relative="1" as="geometry" />
        </mxCell>
        <mxCell id="F5Gc1yzAL4nugvWNy83B-6" value="&lt;b&gt;Private&lt;/b&gt;" style="rounded=1;whiteSpace=wrap;html=1;fillColor=#f8cecc;gradientColor=#ea6b66;strokeColor=#b85450;" parent="1" vertex="1">
          <mxGeometry x="1113" y="-355" width="120" height="60" as="geometry" />
        </mxCell>
        <mxCell id="F5Gc1yzAL4nugvWNy83B-46" style="edgeStyle=orthogonalEdgeStyle;rounded=0;orthogonalLoop=1;jettySize=auto;html=1;entryX=0;entryY=0.5;entryDx=0;entryDy=0;" parent="1" source="F5Gc1yzAL4nugvWNy83B-7" target="F5Gc1yzAL4nugvWNy83B-9" edge="1">
          <mxGeometry relative="1" as="geometry" />
        </mxCell>
        <mxCell id="F5Gc1yzAL4nugvWNy83B-7" value="&lt;b&gt;Private&lt;/b&gt;" style="rounded=1;whiteSpace=wrap;html=1;fillColor=#f8cecc;gradientColor=#ea6b66;strokeColor=#b85450;" parent="1" vertex="1">
          <mxGeometry x="1113" y="-200" width="120" height="60" as="geometry" />
        </mxCell>
        <mxCell id="F5Gc1yzAL4nugvWNy83B-8" value="&lt;b&gt;Private&lt;/b&gt;" style="rounded=1;whiteSpace=wrap;html=1;fillColor=#e6d0de;gradientColor=#d5739d;strokeColor=#996185;" parent="1" vertex="1">
          <mxGeometry x="1303" y="-355" width="120" height="60" as="geometry" />
        </mxCell>
        <mxCell id="F5Gc1yzAL4nugvWNy83B-9" value="&lt;b&gt;Private&lt;/b&gt;" style="rounded=1;whiteSpace=wrap;html=1;fillColor=#e6d0de;gradientColor=#d5739d;strokeColor=#996185;" parent="1" vertex="1">
          <mxGeometry x="1303" y="-200" width="120" height="60" as="geometry" />
        </mxCell>
        <mxCell id="F5Gc1yzAL4nugvWNy83B-10" value="" style="endArrow=classic;html=1;rounded=0;entryX=0.031;entryY=0.449;entryDx=0;entryDy=0;entryPerimeter=0;" parent="1" target="F5Gc1yzAL4nugvWNy83B-3" edge="1">
          <mxGeometry width="50" height="50" relative="1" as="geometry">
            <mxPoint x="280" y="-237" as="sourcePoint" />
            <mxPoint x="1213" y="-170" as="targetPoint" />
          </mxGeometry>
        </mxCell>
        <mxCell id="F5Gc1yzAL4nugvWNy83B-11" value="" style="rounded=0;whiteSpace=wrap;html=1;" parent="1" vertex="1">
          <mxGeometry x="813" y="-20" width="690" height="330" as="geometry" />
        </mxCell>
        <mxCell id="F5Gc1yzAL4nugvWNy83B-39" style="edgeStyle=orthogonalEdgeStyle;rounded=0;orthogonalLoop=1;jettySize=auto;html=1;" parent="1" source="F5Gc1yzAL4nugvWNy83B-12" target="F5Gc1yzAL4nugvWNy83B-14" edge="1">
          <mxGeometry relative="1" as="geometry" />
        </mxCell>
        <mxCell id="F5Gc1yzAL4nugvWNy83B-12" value="&lt;b&gt;Public Affairs&lt;/b&gt;" style="rounded=1;whiteSpace=wrap;html=1;fillColor=#dae8fc;gradientColor=#7ea6e0;strokeColor=#6c8ebf;" parent="1" vertex="1">
          <mxGeometry x="913" y="50" width="120" height="60" as="geometry" />
        </mxCell>
        <mxCell id="F5Gc1yzAL4nugvWNy83B-41" style="edgeStyle=orthogonalEdgeStyle;rounded=0;orthogonalLoop=1;jettySize=auto;html=1;entryX=0;entryY=0.5;entryDx=0;entryDy=0;" parent="1" source="F5Gc1yzAL4nugvWNy83B-13" target="F5Gc1yzAL4nugvWNy83B-15" edge="1">
          <mxGeometry relative="1" as="geometry" />
        </mxCell>
        <mxCell id="F5Gc1yzAL4nugvWNy83B-13" value="&lt;b&gt;Public Affairs&lt;/b&gt;" style="rounded=1;whiteSpace=wrap;html=1;fillColor=#dae8fc;gradientColor=#7ea6e0;strokeColor=#6c8ebf;" parent="1" vertex="1">
          <mxGeometry x="913" y="210" width="120" height="60" as="geometry" />
        </mxCell>
        <mxCell id="F5Gc1yzAL4nugvWNy83B-40" style="edgeStyle=orthogonalEdgeStyle;rounded=0;orthogonalLoop=1;jettySize=auto;html=1;entryX=0;entryY=0.5;entryDx=0;entryDy=0;" parent="1" source="F5Gc1yzAL4nugvWNy83B-14" target="F5Gc1yzAL4nugvWNy83B-21" edge="1">
          <mxGeometry relative="1" as="geometry" />
        </mxCell>
        <mxCell id="F5Gc1yzAL4nugvWNy83B-14" value="&lt;b&gt;Ministry&lt;/b&gt;" style="rounded=1;whiteSpace=wrap;html=1;fillColor=#f8cecc;gradientColor=#ea6b66;strokeColor=#b85450;" parent="1" vertex="1">
          <mxGeometry x="1153" y="50" width="120" height="60" as="geometry" />
        </mxCell>
        <mxCell id="F5Gc1yzAL4nugvWNy83B-42" style="edgeStyle=orthogonalEdgeStyle;rounded=0;orthogonalLoop=1;jettySize=auto;html=1;entryX=0;entryY=0.5;entryDx=0;entryDy=0;" parent="1" source="F5Gc1yzAL4nugvWNy83B-15" target="F5Gc1yzAL4nugvWNy83B-22" edge="1">
          <mxGeometry relative="1" as="geometry" />
        </mxCell>
        <mxCell id="F5Gc1yzAL4nugvWNy83B-15" value="&lt;b&gt;Ministry&lt;/b&gt;" style="rounded=1;whiteSpace=wrap;html=1;fillColor=#f8cecc;gradientColor=#ea6b66;strokeColor=#b85450;" parent="1" vertex="1">
          <mxGeometry x="1153" y="210" width="120" height="60" as="geometry" />
        </mxCell>
        <mxCell id="F5Gc1yzAL4nugvWNy83B-16" style="edgeStyle=orthogonalEdgeStyle;rounded=0;orthogonalLoop=1;jettySize=auto;html=1;entryX=0.5;entryY=1;entryDx=0;entryDy=0;" parent="1" source="F5Gc1yzAL4nugvWNy83B-17" target="F5Gc1yzAL4nugvWNy83B-12" edge="1">
          <mxGeometry relative="1" as="geometry" />
        </mxCell>
        <mxCell id="F5Gc1yzAL4nugvWNy83B-17" value="&lt;b&gt;Internet&lt;/b&gt;&lt;div&gt;&lt;b&gt;Gateway&lt;/b&gt;&lt;/div&gt;" style="whiteSpace=wrap;html=1;aspect=fixed;fillColor=#d5e8d4;gradientColor=#97d077;strokeColor=#82b366;" parent="1" vertex="1">
          <mxGeometry x="773" y="110" width="80" height="80" as="geometry" />
        </mxCell>
        <mxCell id="F5Gc1yzAL4nugvWNy83B-18" value="&lt;b&gt;like modem&lt;/b&gt;" style="text;html=1;align=center;verticalAlign=middle;resizable=0;points=[];autosize=1;strokeColor=none;fillColor=none;" parent="1" vertex="1">
          <mxGeometry x="713" y="200" width="90" height="30" as="geometry" />
        </mxCell>
        <mxCell id="F5Gc1yzAL4nugvWNy83B-19" value="" style="endArrow=classic;html=1;rounded=0;entryX=0;entryY=0.5;entryDx=0;entryDy=0;" parent="1" target="F5Gc1yzAL4nugvWNy83B-17" edge="1">
          <mxGeometry width="50" height="50" relative="1" as="geometry">
            <mxPoint x="563" y="150" as="sourcePoint" />
            <mxPoint x="1163" y="50" as="targetPoint" />
          </mxGeometry>
        </mxCell>
        <mxCell id="F5Gc1yzAL4nugvWNy83B-20" value="&lt;b&gt;Internet&lt;/b&gt;" style="text;html=1;align=center;verticalAlign=middle;resizable=0;points=[];autosize=1;strokeColor=none;fillColor=none;" parent="1" vertex="1">
          <mxGeometry x="633" y="160" width="70" height="30" as="geometry" />
        </mxCell>
        <mxCell id="F5Gc1yzAL4nugvWNy83B-21" value="&lt;b&gt;PMO&lt;/b&gt;" style="rounded=1;whiteSpace=wrap;html=1;fillColor=#f8cecc;gradientColor=#ea6b66;strokeColor=#b85450;" parent="1" vertex="1">
          <mxGeometry x="1343" y="50" width="120" height="60" as="geometry" />
        </mxCell>
        <mxCell id="F5Gc1yzAL4nugvWNy83B-22" value="&lt;b&gt;PMO&lt;/b&gt;" style="rounded=1;whiteSpace=wrap;html=1;fillColor=#f8cecc;gradientColor=#ea6b66;strokeColor=#b85450;" parent="1" vertex="1">
          <mxGeometry x="1343" y="210" width="120" height="60" as="geometry" />
        </mxCell>
        <mxCell id="F5Gc1yzAL4nugvWNy83B-23" value="&lt;b&gt;Delhi GOV Village&lt;/b&gt;" style="text;html=1;align=center;verticalAlign=middle;resizable=0;points=[];autosize=1;strokeColor=none;fillColor=none;" parent="1" vertex="1">
          <mxGeometry x="1083" y="-20" width="120" height="30" as="geometry" />
        </mxCell>
        <mxCell id="F5Gc1yzAL4nugvWNy83B-24" style="edgeStyle=orthogonalEdgeStyle;rounded=0;orthogonalLoop=1;jettySize=auto;html=1;entryX=0.232;entryY=0.697;entryDx=0;entryDy=0;entryPerimeter=0;" parent="1" source="F5Gc1yzAL4nugvWNy83B-17" target="F5Gc1yzAL4nugvWNy83B-11" edge="1">
          <mxGeometry relative="1" as="geometry">
            <Array as="points">
              <mxPoint x="973" y="150" />
            </Array>
          </mxGeometry>
        </mxCell>
        <mxCell id="F5Gc1yzAL4nugvWNy83B-25" value="&lt;b&gt;Public Subnet&lt;/b&gt;" style="text;html=1;align=center;verticalAlign=middle;resizable=0;points=[];autosize=1;strokeColor=none;fillColor=none;" parent="1" vertex="1">
          <mxGeometry x="923" y="280" width="100" height="30" as="geometry" />
        </mxCell>
        <mxCell id="F5Gc1yzAL4nugvWNy83B-26" value="&lt;b&gt;Private Subnet&lt;/b&gt;" style="text;html=1;align=center;verticalAlign=middle;resizable=0;points=[];autosize=1;strokeColor=none;fillColor=none;" parent="1" vertex="1">
          <mxGeometry x="1163" y="280" width="110" height="30" as="geometry" />
        </mxCell>
        <mxCell id="F5Gc1yzAL4nugvWNy83B-27" value="&lt;b&gt;DB subnet&lt;/b&gt;" style="text;html=1;align=center;verticalAlign=middle;resizable=0;points=[];autosize=1;strokeColor=none;fillColor=none;" parent="1" vertex="1">
          <mxGeometry x="1373" y="280" width="80" height="30" as="geometry" />
        </mxCell>
        <mxCell id="F5Gc1yzAL4nugvWNy83B-29" value="&lt;font face=&quot;Comic Sans MS&quot;&gt;&lt;b&gt;AWS Account&lt;/b&gt;&lt;/font&gt;" style="points=[[0,0],[0.25,0],[0.5,0],[0.75,0],[1,0],[1,0.25],[1,0.5],[1,0.75],[1,1],[0.75,1],[0.5,1],[0.25,1],[0,1],[0,0.75],[0,0.5],[0,0.25]];outlineConnect=0;gradientColor=none;html=1;whiteSpace=wrap;fontSize=12;fontStyle=0;container=1;pointerEvents=0;collapsible=0;recursiveResize=0;shape=mxgraph.aws4.group;grIcon=mxgraph.aws4.group_account;strokeColor=#CD2264;fillColor=none;verticalAlign=top;align=left;spacingLeft=30;fontColor=#CD2264;dashed=0;strokeWidth=2;" parent="1" vertex="1">
          <mxGeometry x="740" y="360" width="1270" height="590" as="geometry" />
        </mxCell>
        <mxCell id="F5Gc1yzAL4nugvWNy83B-30" value="&lt;b&gt;&lt;font face=&quot;Comic Sans MS&quot;&gt;roboshop-dev&lt;/font&gt;&lt;/b&gt;" style="points=[[0,0],[0.25,0],[0.5,0],[0.75,0],[1,0],[1,0.25],[1,0.5],[1,0.75],[1,1],[0.75,1],[0.5,1],[0.25,1],[0,1],[0,0.75],[0,0.5],[0,0.25]];outlineConnect=0;gradientColor=none;html=1;whiteSpace=wrap;fontSize=12;fontStyle=0;container=1;pointerEvents=0;collapsible=0;recursiveResize=0;shape=mxgraph.aws4.group;grIcon=mxgraph.aws4.group_vpc2;strokeColor=#8C4FFF;fillColor=none;verticalAlign=top;align=left;spacingLeft=30;fontColor=#AAB7B8;dashed=0;strokeWidth=2;" parent="F5Gc1yzAL4nugvWNy83B-29" vertex="1">
          <mxGeometry x="63" y="80" width="637" height="480" as="geometry" />
        </mxCell>
        <mxCell id="F5Gc1yzAL4nugvWNy83B-31" value="" style="rounded=1;arcSize=10;dashed=1;dashPattern=8 4;strokeWidth=2;fillColor=#eeeeee;strokeColor=#36393d;" parent="F5Gc1yzAL4nugvWNy83B-30" vertex="1">
          <mxGeometry x="40" y="40" width="560" height="130" as="geometry" />
        </mxCell>
        <mxCell id="F5Gc1yzAL4nugvWNy83B-32" value="" style="rounded=1;arcSize=10;dashed=1;strokeColor=#36393d;fillColor=#f9f7ed;dashPattern=8 4;strokeWidth=2;" parent="F5Gc1yzAL4nugvWNy83B-30" vertex="1">
          <mxGeometry x="38.5" y="280" width="560" height="130" as="geometry" />
        </mxCell>
        <mxCell id="F5Gc1yzAL4nugvWNy83B-33" value="&lt;b&gt;&lt;font face=&quot;Comic Sans MS&quot;&gt;roboshop-dev-public&lt;/font&gt;&lt;/b&gt;" style="points=[[0,0],[0.25,0],[0.5,0],[0.75,0],[1,0],[1,0.25],[1,0.5],[1,0.75],[1,1],[0.75,1],[0.5,1],[0.25,1],[0,1],[0,0.75],[0,0.5],[0,0.25]];outlineConnect=0;gradientColor=#97d077;html=1;whiteSpace=wrap;fontSize=12;fontStyle=0;container=1;pointerEvents=0;collapsible=0;recursiveResize=0;shape=mxgraph.aws4.group;grIcon=mxgraph.aws4.group_security_group;grStroke=0;strokeColor=#82b366;fillColor=#d5e8d4;verticalAlign=top;align=left;spacingLeft=30;strokeWidth=2;" parent="F5Gc1yzAL4nugvWNy83B-30" vertex="1">
          <mxGeometry x="77" y="70" width="143" height="300" as="geometry" />
        </mxCell>
        <mxCell id="F5Gc1yzAL4nugvWNy83B-34" value="&lt;b&gt;&lt;font face=&quot;Comic Sans MS&quot;&gt;roboshop-dev-private&lt;/font&gt;&lt;/b&gt;" style="points=[[0,0],[0.25,0],[0.5,0],[0.75,0],[1,0],[1,0.25],[1,0.5],[1,0.75],[1,1],[0.75,1],[0.5,1],[0.25,1],[0,1],[0,0.75],[0,0.5],[0,0.25]];outlineConnect=0;gradientColor=#7ea6e0;html=1;whiteSpace=wrap;fontSize=12;fontStyle=0;container=1;pointerEvents=0;collapsible=0;recursiveResize=0;shape=mxgraph.aws4.group;grIcon=mxgraph.aws4.group_security_group;grStroke=0;strokeColor=#6c8ebf;fillColor=#dae8fc;verticalAlign=top;align=left;spacingLeft=30;dashed=0;strokeWidth=2;" parent="F5Gc1yzAL4nugvWNy83B-30" vertex="1">
          <mxGeometry x="267" y="70" width="130" height="300" as="geometry" />
        </mxCell>
        <mxCell id="F5Gc1yzAL4nugvWNy83B-35" value="&lt;b&gt;&lt;font face=&quot;Comic Sans MS&quot;&gt;roboshop-dev-database&lt;/font&gt;&lt;/b&gt;" style="points=[[0,0],[0.25,0],[0.5,0],[0.75,0],[1,0],[1,0.25],[1,0.5],[1,0.75],[1,1],[0.75,1],[0.5,1],[0.25,1],[0,1],[0,0.75],[0,0.5],[0,0.25]];outlineConnect=0;gradientColor=#d5739d;html=1;whiteSpace=wrap;fontSize=12;fontStyle=0;container=1;pointerEvents=0;collapsible=0;recursiveResize=0;shape=mxgraph.aws4.group;grIcon=mxgraph.aws4.group_security_group;grStroke=0;strokeColor=#996185;fillColor=#e6d0de;verticalAlign=top;align=left;spacingLeft=30;dashed=0;strokeWidth=2;" parent="F5Gc1yzAL4nugvWNy83B-30" vertex="1">
          <mxGeometry x="447" y="70" width="130" height="300" as="geometry" />
        </mxCell>
        <mxCell id="F5Gc1yzAL4nugvWNy83B-36" value="&lt;b&gt;&lt;font face=&quot;Comic Sans MS&quot;&gt;us-east-1a&lt;/font&gt;&lt;/b&gt;" style="text;html=1;align=center;verticalAlign=middle;resizable=0;points=[];autosize=1;strokeColor=none;fillColor=none;" parent="F5Gc1yzAL4nugvWNy83B-30" vertex="1">
          <mxGeometry x="242" y="10" width="90" height="30" as="geometry" />
        </mxCell>
        <mxCell id="F5Gc1yzAL4nugvWNy83B-37" value="&lt;b&gt;us-east-1b&lt;/b&gt;" style="text;html=1;align=center;verticalAlign=middle;resizable=0;points=[];autosize=1;strokeColor=none;fillColor=none;" parent="F5Gc1yzAL4nugvWNy83B-30" vertex="1">
          <mxGeometry x="302" y="410" width="80" height="30" as="geometry" />
        </mxCell>
        <mxCell id="F5Gc1yzAL4nugvWNy83B-38" value="" style="sketch=0;outlineConnect=0;fontColor=#232F3E;gradientColor=none;fillColor=#232F3D;strokeColor=none;dashed=0;verticalLabelPosition=bottom;verticalAlign=top;align=center;html=1;fontSize=12;fontStyle=0;aspect=fixed;pointerEvents=1;shape=mxgraph.aws4.internet_alt22;" parent="F5Gc1yzAL4nugvWNy83B-30" vertex="1">
          <mxGeometry x="-38" y="180" width="78" height="78" as="geometry" />
        </mxCell>
        <mxCell id="00j6RAwukg2lDMW3cCBW-10" style="edgeStyle=orthogonalEdgeStyle;rounded=0;orthogonalLoop=1;jettySize=auto;html=1;" edge="1" parent="F5Gc1yzAL4nugvWNy83B-30" source="00j6RAwukg2lDMW3cCBW-4" target="F5Gc1yzAL4nugvWNy83B-38">
          <mxGeometry relative="1" as="geometry" />
        </mxCell>
        <mxCell id="00j6RAwukg2lDMW3cCBW-4" value="" style="points=[];aspect=fixed;html=1;align=center;shadow=0;dashed=0;fillColor=#FF6A00;strokeColor=none;shape=mxgraph.alibaba_cloud.nat_gateway;" vertex="1" parent="F5Gc1yzAL4nugvWNy83B-30">
          <mxGeometry x="110.33" y="130" width="76.35" height="61.7" as="geometry" />
        </mxCell>
        <mxCell id="00j6RAwukg2lDMW3cCBW-12" value="" style="sketch=0;outlineConnect=0;fontColor=#232F3E;gradientColor=none;fillColor=#C925D1;strokeColor=none;dashed=0;verticalLabelPosition=bottom;verticalAlign=top;align=center;html=1;fontSize=12;fontStyle=0;aspect=fixed;pointerEvents=1;shape=mxgraph.aws4.rds_mysql_instance;" vertex="1" parent="F5Gc1yzAL4nugvWNy83B-30">
          <mxGeometry x="487" y="130" width="50" height="50" as="geometry" />
        </mxCell>
        <mxCell id="00j6RAwukg2lDMW3cCBW-13" style="edgeStyle=orthogonalEdgeStyle;rounded=0;orthogonalLoop=1;jettySize=auto;html=1;entryX=0.884;entryY=0.513;entryDx=0;entryDy=0;entryPerimeter=0;" edge="1" parent="F5Gc1yzAL4nugvWNy83B-30" source="00j6RAwukg2lDMW3cCBW-12" target="00j6RAwukg2lDMW3cCBW-4">
          <mxGeometry relative="1" as="geometry" />
        </mxCell>
        <mxCell id="F5Gc1yzAL4nugvWNy83B-118" value="" style="shape=table;startSize=0;container=1;collapsible=0;childLayout=tableLayout;fillColor=#dae8fc;gradientColor=#7ea6e0;strokeColor=#6c8ebf;" parent="F5Gc1yzAL4nugvWNy83B-29" vertex="1">
          <mxGeometry x="120" y="10" width="173" height="60" as="geometry" />
        </mxCell>
        <mxCell id="F5Gc1yzAL4nugvWNy83B-119" value="" style="shape=tableRow;horizontal=0;startSize=0;swimlaneHead=0;swimlaneBody=0;strokeColor=inherit;top=0;left=0;bottom=0;right=0;collapsible=0;dropTarget=0;fillColor=none;points=[[0,0.5],[1,0.5]];portConstraint=eastwest;" parent="F5Gc1yzAL4nugvWNy83B-118" vertex="1">
          <mxGeometry width="173" height="20" as="geometry" />
        </mxCell>
        <mxCell id="F5Gc1yzAL4nugvWNy83B-120" value="&lt;font face=&quot;Comic Sans MS&quot;&gt;10.0.0.0/16&lt;/font&gt;" style="shape=partialRectangle;html=1;whiteSpace=wrap;connectable=0;strokeColor=inherit;overflow=hidden;fillColor=none;top=0;left=0;bottom=0;right=0;pointerEvents=1;fontStyle=1" parent="F5Gc1yzAL4nugvWNy83B-119" vertex="1">
          <mxGeometry width="87" height="20" as="geometry">
            <mxRectangle width="87" height="20" as="alternateBounds" />
          </mxGeometry>
        </mxCell>
        <mxCell id="F5Gc1yzAL4nugvWNy83B-121" value="&lt;b&gt;&lt;font face=&quot;Comic Sans MS&quot;&gt;local&lt;/font&gt;&lt;/b&gt;" style="shape=partialRectangle;html=1;whiteSpace=wrap;connectable=0;strokeColor=inherit;overflow=hidden;fillColor=none;top=0;left=0;bottom=0;right=0;pointerEvents=1;" parent="F5Gc1yzAL4nugvWNy83B-119" vertex="1">
          <mxGeometry x="87" width="86" height="20" as="geometry">
            <mxRectangle width="86" height="20" as="alternateBounds" />
          </mxGeometry>
        </mxCell>
        <mxCell id="F5Gc1yzAL4nugvWNy83B-122" value="" style="shape=tableRow;horizontal=0;startSize=0;swimlaneHead=0;swimlaneBody=0;strokeColor=inherit;top=0;left=0;bottom=0;right=0;collapsible=0;dropTarget=0;fillColor=none;points=[[0,0.5],[1,0.5]];portConstraint=eastwest;fontStyle=1" parent="F5Gc1yzAL4nugvWNy83B-118" vertex="1">
          <mxGeometry y="20" width="173" height="40" as="geometry" />
        </mxCell>
        <mxCell id="F5Gc1yzAL4nugvWNy83B-123" value="&lt;font face=&quot;Comic Sans MS&quot;&gt;0.0.0.0/0&lt;/font&gt;&lt;div&gt;&lt;font face=&quot;Comic Sans MS&quot;&gt;172.31.0.0/16&lt;/font&gt;&lt;/div&gt;" style="shape=partialRectangle;html=1;whiteSpace=wrap;connectable=0;strokeColor=inherit;overflow=hidden;fillColor=none;top=0;left=0;bottom=0;right=0;pointerEvents=1;fontStyle=1" parent="F5Gc1yzAL4nugvWNy83B-122" vertex="1">
          <mxGeometry width="87" height="40" as="geometry">
            <mxRectangle width="87" height="40" as="alternateBounds" />
          </mxGeometry>
        </mxCell>
        <mxCell id="F5Gc1yzAL4nugvWNy83B-124" value="&lt;font face=&quot;Comic Sans MS&quot;&gt;IGW&lt;/font&gt;&lt;div&gt;&lt;font face=&quot;Comic Sans MS&quot;&gt;peering&lt;/font&gt;&lt;/div&gt;" style="shape=partialRectangle;html=1;whiteSpace=wrap;connectable=0;strokeColor=inherit;overflow=hidden;fillColor=none;top=0;left=0;bottom=0;right=0;pointerEvents=1;fontStyle=1" parent="F5Gc1yzAL4nugvWNy83B-122" vertex="1">
          <mxGeometry x="87" width="86" height="40" as="geometry">
            <mxRectangle width="86" height="40" as="alternateBounds" />
          </mxGeometry>
        </mxCell>
        <mxCell id="F5Gc1yzAL4nugvWNy83B-137" style="edgeStyle=orthogonalEdgeStyle;rounded=0;orthogonalLoop=1;jettySize=auto;html=1;entryX=0.53;entryY=1.03;entryDx=0;entryDy=0;entryPerimeter=0;flowAnimation=1;" parent="F5Gc1yzAL4nugvWNy83B-29" source="F5Gc1yzAL4nugvWNy83B-33" target="F5Gc1yzAL4nugvWNy83B-122" edge="1">
          <mxGeometry relative="1" as="geometry" />
        </mxCell>
        <mxCell id="F5Gc1yzAL4nugvWNy83B-138" style="edgeStyle=orthogonalEdgeStyle;rounded=0;orthogonalLoop=1;jettySize=auto;html=1;flowAnimation=1;" parent="F5Gc1yzAL4nugvWNy83B-29" source="F5Gc1yzAL4nugvWNy83B-34" edge="1">
          <mxGeometry relative="1" as="geometry">
            <mxPoint x="400" y="70" as="targetPoint" />
            <Array as="points">
              <mxPoint x="395" y="111" />
              <mxPoint x="401" y="111" />
            </Array>
          </mxGeometry>
        </mxCell>
        <mxCell id="F5Gc1yzAL4nugvWNy83B-140" style="edgeStyle=orthogonalEdgeStyle;rounded=0;orthogonalLoop=1;jettySize=auto;html=1;entryX=0.584;entryY=1.014;entryDx=0;entryDy=0;entryPerimeter=0;flowAnimation=1;" parent="F5Gc1yzAL4nugvWNy83B-29" source="F5Gc1yzAL4nugvWNy83B-35" edge="1">
          <mxGeometry relative="1" as="geometry">
            <Array as="points">
              <mxPoint x="575" y="45" />
            </Array>
            <mxPoint x="581.7600000000002" y="45.2800000000002" as="targetPoint" />
          </mxGeometry>
        </mxCell>
        <mxCell id="F5Gc1yzAL4nugvWNy83B-141" value="&lt;h3&gt;&lt;br&gt;&lt;/h3&gt;" style="text;html=1;align=center;verticalAlign=middle;resizable=0;points=[];autosize=1;strokeColor=none;fillColor=none;" parent="F5Gc1yzAL4nugvWNy83B-29" vertex="1">
          <mxGeometry x="35" y="323" width="20" height="60" as="geometry" />
        </mxCell>
        <mxCell id="F5Gc1yzAL4nugvWNy83B-142" value="&lt;b&gt;&lt;font face=&quot;Comic Sans MS&quot;&gt;roboshop-dev&lt;/font&gt;&lt;/b&gt;" style="text;html=1;align=center;verticalAlign=middle;resizable=0;points=[];autosize=1;strokeColor=none;fillColor=none;" parent="F5Gc1yzAL4nugvWNy83B-29" vertex="1">
          <mxGeometry y="330" width="100" height="30" as="geometry" />
        </mxCell>
        <mxCell id="00j6RAwukg2lDMW3cCBW-17" value="" style="shape=table;startSize=0;container=1;collapsible=0;childLayout=tableLayout;fillColor=#dae8fc;gradientColor=#7ea6e0;strokeColor=#6c8ebf;" vertex="1" parent="F5Gc1yzAL4nugvWNy83B-29">
          <mxGeometry x="310" y="20" width="173" height="45" as="geometry" />
        </mxCell>
        <mxCell id="00j6RAwukg2lDMW3cCBW-18" value="" style="shape=tableRow;horizontal=0;startSize=0;swimlaneHead=0;swimlaneBody=0;strokeColor=inherit;top=0;left=0;bottom=0;right=0;collapsible=0;dropTarget=0;fillColor=none;points=[[0,0.5],[1,0.5]];portConstraint=eastwest;" vertex="1" parent="00j6RAwukg2lDMW3cCBW-17">
          <mxGeometry width="173" height="28" as="geometry" />
        </mxCell>
        <mxCell id="00j6RAwukg2lDMW3cCBW-19" value="&lt;font face=&quot;Comic Sans MS&quot;&gt;10.0.0.0/16&lt;/font&gt;" style="shape=partialRectangle;html=1;whiteSpace=wrap;connectable=0;strokeColor=inherit;overflow=hidden;fillColor=none;top=0;left=0;bottom=0;right=0;pointerEvents=1;fontStyle=1" vertex="1" parent="00j6RAwukg2lDMW3cCBW-18">
          <mxGeometry width="87" height="28" as="geometry">
            <mxRectangle width="87" height="28" as="alternateBounds" />
          </mxGeometry>
        </mxCell>
        <mxCell id="00j6RAwukg2lDMW3cCBW-20" value="&lt;b&gt;&lt;font face=&quot;Comic Sans MS&quot;&gt;local&lt;/font&gt;&lt;/b&gt;" style="shape=partialRectangle;html=1;whiteSpace=wrap;connectable=0;strokeColor=inherit;overflow=hidden;fillColor=none;top=0;left=0;bottom=0;right=0;pointerEvents=1;" vertex="1" parent="00j6RAwukg2lDMW3cCBW-18">
          <mxGeometry x="87" width="86" height="28" as="geometry">
            <mxRectangle width="86" height="28" as="alternateBounds" />
          </mxGeometry>
        </mxCell>
        <mxCell id="00j6RAwukg2lDMW3cCBW-21" value="" style="shape=tableRow;horizontal=0;startSize=0;swimlaneHead=0;swimlaneBody=0;strokeColor=inherit;top=0;left=0;bottom=0;right=0;collapsible=0;dropTarget=0;fillColor=none;points=[[0,0.5],[1,0.5]];portConstraint=eastwest;fontStyle=1" vertex="1" parent="00j6RAwukg2lDMW3cCBW-17">
          <mxGeometry y="28" width="173" height="17" as="geometry" />
        </mxCell>
        <mxCell id="00j6RAwukg2lDMW3cCBW-22" value="&lt;font face=&quot;Comic Sans MS&quot;&gt;0.0.0.0/0&lt;/font&gt;" style="shape=partialRectangle;html=1;whiteSpace=wrap;connectable=0;strokeColor=inherit;overflow=hidden;fillColor=none;top=0;left=0;bottom=0;right=0;pointerEvents=1;fontStyle=1" vertex="1" parent="00j6RAwukg2lDMW3cCBW-21">
          <mxGeometry width="87" height="17" as="geometry">
            <mxRectangle width="87" height="17" as="alternateBounds" />
          </mxGeometry>
        </mxCell>
        <mxCell id="00j6RAwukg2lDMW3cCBW-23" value="&lt;font face=&quot;Comic Sans MS&quot;&gt;NAT&lt;/font&gt;" style="shape=partialRectangle;html=1;whiteSpace=wrap;connectable=0;strokeColor=inherit;overflow=hidden;fillColor=none;top=0;left=0;bottom=0;right=0;pointerEvents=1;fontStyle=1" vertex="1" parent="00j6RAwukg2lDMW3cCBW-21">
          <mxGeometry x="87" width="86" height="17" as="geometry">
            <mxRectangle width="86" height="17" as="alternateBounds" />
          </mxGeometry>
        </mxCell>
        <mxCell id="00j6RAwukg2lDMW3cCBW-24" value="" style="shape=table;startSize=0;container=1;collapsible=0;childLayout=tableLayout;fillColor=#dae8fc;gradientColor=#7ea6e0;strokeColor=#6c8ebf;" vertex="1" parent="F5Gc1yzAL4nugvWNy83B-29">
          <mxGeometry x="500" width="173" height="45" as="geometry" />
        </mxCell>
        <mxCell id="00j6RAwukg2lDMW3cCBW-25" value="" style="shape=tableRow;horizontal=0;startSize=0;swimlaneHead=0;swimlaneBody=0;strokeColor=inherit;top=0;left=0;bottom=0;right=0;collapsible=0;dropTarget=0;fillColor=none;points=[[0,0.5],[1,0.5]];portConstraint=eastwest;" vertex="1" parent="00j6RAwukg2lDMW3cCBW-24">
          <mxGeometry width="173" height="28" as="geometry" />
        </mxCell>
        <mxCell id="00j6RAwukg2lDMW3cCBW-26" value="&lt;font face=&quot;Comic Sans MS&quot;&gt;10.0.0.0/16&lt;/font&gt;" style="shape=partialRectangle;html=1;whiteSpace=wrap;connectable=0;strokeColor=inherit;overflow=hidden;fillColor=none;top=0;left=0;bottom=0;right=0;pointerEvents=1;fontStyle=1" vertex="1" parent="00j6RAwukg2lDMW3cCBW-25">
          <mxGeometry width="87" height="28" as="geometry">
            <mxRectangle width="87" height="28" as="alternateBounds" />
          </mxGeometry>
        </mxCell>
        <mxCell id="00j6RAwukg2lDMW3cCBW-27" value="&lt;b&gt;&lt;font face=&quot;Comic Sans MS&quot;&gt;local&lt;/font&gt;&lt;/b&gt;" style="shape=partialRectangle;html=1;whiteSpace=wrap;connectable=0;strokeColor=inherit;overflow=hidden;fillColor=none;top=0;left=0;bottom=0;right=0;pointerEvents=1;" vertex="1" parent="00j6RAwukg2lDMW3cCBW-25">
          <mxGeometry x="87" width="86" height="28" as="geometry">
            <mxRectangle width="86" height="28" as="alternateBounds" />
          </mxGeometry>
        </mxCell>
        <mxCell id="00j6RAwukg2lDMW3cCBW-28" value="" style="shape=tableRow;horizontal=0;startSize=0;swimlaneHead=0;swimlaneBody=0;strokeColor=inherit;top=0;left=0;bottom=0;right=0;collapsible=0;dropTarget=0;fillColor=none;points=[[0,0.5],[1,0.5]];portConstraint=eastwest;fontStyle=1" vertex="1" parent="00j6RAwukg2lDMW3cCBW-24">
          <mxGeometry y="28" width="173" height="17" as="geometry" />
        </mxCell>
        <mxCell id="00j6RAwukg2lDMW3cCBW-29" value="&lt;font face=&quot;Comic Sans MS&quot;&gt;0.0.0.0/0&lt;/font&gt;" style="shape=partialRectangle;html=1;whiteSpace=wrap;connectable=0;strokeColor=inherit;overflow=hidden;fillColor=none;top=0;left=0;bottom=0;right=0;pointerEvents=1;fontStyle=1" vertex="1" parent="00j6RAwukg2lDMW3cCBW-28">
          <mxGeometry width="87" height="17" as="geometry">
            <mxRectangle width="87" height="17" as="alternateBounds" />
          </mxGeometry>
        </mxCell>
        <mxCell id="00j6RAwukg2lDMW3cCBW-30" value="&lt;font face=&quot;Comic Sans MS&quot;&gt;NAT&lt;/font&gt;" style="shape=partialRectangle;html=1;whiteSpace=wrap;connectable=0;strokeColor=inherit;overflow=hidden;fillColor=none;top=0;left=0;bottom=0;right=0;pointerEvents=1;fontStyle=1" vertex="1" parent="00j6RAwukg2lDMW3cCBW-28">
          <mxGeometry x="87" width="86" height="17" as="geometry">
            <mxRectangle width="86" height="17" as="alternateBounds" />
          </mxGeometry>
        </mxCell>
        <mxCell id="00j6RAwukg2lDMW3cCBW-51" value="VPC" style="points=[[0,0],[0.25,0],[0.5,0],[0.75,0],[1,0],[1,0.25],[1,0.5],[1,0.75],[1,1],[0.75,1],[0.5,1],[0.25,1],[0,1],[0,0.75],[0,0.5],[0,0.25]];outlineConnect=0;gradientColor=none;html=1;whiteSpace=wrap;fontSize=12;fontStyle=0;container=1;pointerEvents=0;collapsible=0;recursiveResize=0;shape=mxgraph.aws4.group;grIcon=mxgraph.aws4.group_vpc2;strokeColor=#8C4FFF;fillColor=none;verticalAlign=top;align=left;spacingLeft=30;fontColor=#AAB7B8;dashed=0;" vertex="1" parent="F5Gc1yzAL4nugvWNy83B-29">
          <mxGeometry x="830" y="80" width="420" height="440" as="geometry" />
        </mxCell>
        <mxCell id="00j6RAwukg2lDMW3cCBW-55" value="&lt;b&gt;&lt;font face=&quot;Comic Sans MS&quot;&gt;default&lt;/font&gt;&lt;/b&gt;" style="points=[[0,0],[0.25,0],[0.5,0],[0.75,0],[1,0],[1,0.25],[1,0.5],[1,0.75],[1,1],[0.75,1],[0.5,1],[0.25,1],[0,1],[0,0.75],[0,0.5],[0,0.25]];outlineConnect=0;gradientColor=#97d077;html=1;whiteSpace=wrap;fontSize=12;fontStyle=0;container=1;pointerEvents=0;collapsible=0;recursiveResize=0;shape=mxgraph.aws4.group;grIcon=mxgraph.aws4.group_security_group;grStroke=0;strokeColor=#82b366;fillColor=#d5e8d4;verticalAlign=top;align=left;spacingLeft=30;strokeWidth=2;" vertex="1" parent="00j6RAwukg2lDMW3cCBW-51">
          <mxGeometry x="50" y="60" width="143" height="300" as="geometry" />
        </mxCell>
        <mxCell id="00j6RAwukg2lDMW3cCBW-56" value="&lt;b&gt;172.31.1.0/24&lt;/b&gt;" style="text;html=1;align=center;verticalAlign=middle;resizable=0;points=[];autosize=1;strokeColor=none;fillColor=none;" vertex="1" parent="00j6RAwukg2lDMW3cCBW-55">
          <mxGeometry y="20" width="100" height="30" as="geometry" />
        </mxCell>
        <mxCell id="00j6RAwukg2lDMW3cCBW-52" value="" style="outlineConnect=0;dashed=0;verticalLabelPosition=bottom;verticalAlign=top;align=center;html=1;shape=mxgraph.aws3.vpc_peering;fillColor=#F58534;gradientColor=none;" vertex="1" parent="F5Gc1yzAL4nugvWNy83B-29">
          <mxGeometry x="730" y="251" width="69" height="72" as="geometry" />
        </mxCell>
        <mxCell id="00j6RAwukg2lDMW3cCBW-53" style="edgeStyle=orthogonalEdgeStyle;rounded=0;orthogonalLoop=1;jettySize=auto;html=1;entryX=0;entryY=0.5;entryDx=0;entryDy=0;entryPerimeter=0;" edge="1" parent="F5Gc1yzAL4nugvWNy83B-29" source="F5Gc1yzAL4nugvWNy83B-30" target="00j6RAwukg2lDMW3cCBW-52">
          <mxGeometry relative="1" as="geometry" />
        </mxCell>
        <mxCell id="00j6RAwukg2lDMW3cCBW-54" style="edgeStyle=orthogonalEdgeStyle;rounded=0;orthogonalLoop=1;jettySize=auto;html=1;entryX=0.855;entryY=0.145;entryDx=0;entryDy=0;entryPerimeter=0;" edge="1" parent="F5Gc1yzAL4nugvWNy83B-29" source="00j6RAwukg2lDMW3cCBW-51" target="00j6RAwukg2lDMW3cCBW-52">
          <mxGeometry relative="1" as="geometry" />
        </mxCell>
        <mxCell id="F5Gc1yzAL4nugvWNy83B-104" value="" style="shape=table;startSize=0;container=1;collapsible=0;childLayout=tableLayout;fontSize=11;fillColor=none;strokeColor=none;" parent="1" vertex="1">
          <mxGeometry x="1000" y="740" width="60" height="60" as="geometry" />
        </mxCell>
        <mxCell id="00j6RAwukg2lDMW3cCBW-3" style="edgeStyle=orthogonalEdgeStyle;rounded=0;orthogonalLoop=1;jettySize=auto;html=1;" edge="1" parent="1" source="00j6RAwukg2lDMW3cCBW-1" target="00j6RAwukg2lDMW3cCBW-2">
          <mxGeometry relative="1" as="geometry">
            <Array as="points">
              <mxPoint x="910" y="1070" />
            </Array>
          </mxGeometry>
        </mxCell>
        <mxCell id="00j6RAwukg2lDMW3cCBW-1" value="&lt;b&gt;dnf install mysql-server&lt;/b&gt;" style="rounded=0;whiteSpace=wrap;html=1;" vertex="1" parent="1">
          <mxGeometry x="803" y="1160" width="177" height="190" as="geometry" />
        </mxCell>
        <mxCell id="00j6RAwukg2lDMW3cCBW-2" value="&lt;b&gt;yum.repos.d&lt;/b&gt;" style="ellipse;whiteSpace=wrap;html=1;" vertex="1" parent="1">
          <mxGeometry x="1033" y="1030" width="120" height="80" as="geometry" />
        </mxCell>
        <mxCell id="00j6RAwukg2lDMW3cCBW-8" value="&lt;b&gt;internet&lt;/b&gt;" style="ellipse;shape=cloud;whiteSpace=wrap;html=1;fillColor=#dae8fc;strokeColor=#6c8ebf;" vertex="1" parent="1">
          <mxGeometry x="580" y="560.85" width="120" height="80" as="geometry" />
        </mxCell>
        <mxCell id="00j6RAwukg2lDMW3cCBW-11" style="edgeStyle=orthogonalEdgeStyle;rounded=0;orthogonalLoop=1;jettySize=auto;html=1;entryX=0.969;entryY=0.567;entryDx=0;entryDy=0;entryPerimeter=0;" edge="1" parent="1" source="F5Gc1yzAL4nugvWNy83B-38" target="00j6RAwukg2lDMW3cCBW-8">
          <mxGeometry relative="1" as="geometry" />
        </mxCell>
        <mxCell id="00j6RAwukg2lDMW3cCBW-31" value="" style="rounded=0;whiteSpace=wrap;html=1;fillColor=#dae8fc;strokeColor=#6c8ebf;" vertex="1" parent="1">
          <mxGeometry x="1660" y="-400" width="500" height="290" as="geometry" />
        </mxCell>
        <mxCell id="00j6RAwukg2lDMW3cCBW-32" value="&lt;b&gt;Public&lt;/b&gt;" style="rounded=1;whiteSpace=wrap;html=1;fillColor=#dae8fc;gradientColor=#7ea6e0;strokeColor=#6c8ebf;" vertex="1" parent="1">
          <mxGeometry x="1730" y="-360" width="120" height="60" as="geometry" />
        </mxCell>
        <mxCell id="00j6RAwukg2lDMW3cCBW-33" value="&lt;b&gt;Public&lt;/b&gt;" style="rounded=1;whiteSpace=wrap;html=1;fillColor=#dae8fc;gradientColor=#7ea6e0;strokeColor=#6c8ebf;" vertex="1" parent="1">
          <mxGeometry x="1730" y="-215" width="120" height="60" as="geometry" />
        </mxCell>
        <mxCell id="00j6RAwukg2lDMW3cCBW-34" value="&lt;b&gt;Private&lt;/b&gt;" style="rounded=1;whiteSpace=wrap;html=1;fillColor=#f8cecc;gradientColor=#ea6b66;strokeColor=#b85450;" vertex="1" parent="1">
          <mxGeometry x="1920" y="-360" width="120" height="60" as="geometry" />
        </mxCell>
        <mxCell id="00j6RAwukg2lDMW3cCBW-35" value="&lt;b&gt;Private&lt;/b&gt;" style="rounded=1;whiteSpace=wrap;html=1;fillColor=#f8cecc;gradientColor=#ea6b66;strokeColor=#b85450;" vertex="1" parent="1">
          <mxGeometry x="1920" y="-215" width="120" height="60" as="geometry" />
        </mxCell>
        <mxCell id="00j6RAwukg2lDMW3cCBW-37" value="" style="endArrow=classic;startArrow=classic;html=1;rounded=0;entryX=-0.002;entryY=0.473;entryDx=0;entryDy=0;entryPerimeter=0;" edge="1" parent="1" source="F5Gc1yzAL4nugvWNy83B-1" target="00j6RAwukg2lDMW3cCBW-31">
          <mxGeometry width="50" height="50" relative="1" as="geometry">
            <mxPoint x="1450" y="-130" as="sourcePoint" />
            <mxPoint x="1500" y="-180" as="targetPoint" />
          </mxGeometry>
        </mxCell>
      </root>
    </mxGraphModel>
  </diagram>
</mxfile>
